<?xml version="1.0" encoding="UTF-8"?>
<svg xmlns="http://www.w3.org/2000/svg" viewBox="0 0 256 256" width="256" height="256" role="img" aria-label="Sajni mehendi logo dark">
  <defs>
    <g id="paisley-dark">
      <path d="M0-37C-23-21-31 9-12 29C-3 38 10 36 19 25C34 5 24-24 0-37Z" fill="#1B1410"/>
      <path d="M3-24C-8-8-8 13 4 25" fill="none" stroke="#F4ECDB" stroke-width="3.8" stroke-linecap="round"/>
      <circle cx="-16" cy="-3" r="3.7" fill="#1B1410"/>
      <circle cx="16" cy="8" r="3.7" fill="#1B1410"/>
      <circle cx="0" cy="-25" r="4.1" fill="#1B1410"/>
    </g>
    <g id="cluster-dark">
      <circle cx="0" cy="0" r="3.8" fill="#1B1410"/>
      <circle cx="-8" cy="8" r="3.4" fill="#1B1410"/>
      <circle cx="8" cy="8" r="3.4" fill="#1B1410"/>
    </g>
  </defs>

  <g transform="translate(128 128)">
    <use href="#paisley-dark" transform="rotate(0) translate(0 -72)"/>
    <use href="#paisley-dark" transform="rotate(45) translate(0 -72)"/>
    <use href="#paisley-dark" transform="rotate(90) translate(0 -72)"/>
    <use href="#paisley-dark" transform="rotate(135) translate(0 -72)"/>
    <use href="#paisley-dark" transform="rotate(180) translate(0 -72)"/>
    <use href="#paisley-dark" transform="rotate(225) translate(0 -72)"/>
    <use href="#paisley-dark" transform="rotate(270) translate(0 -72)"/>
    <use href="#paisley-dark" transform="rotate(315) translate(0 -72)"/>

    <use href="#cluster-dark" transform="rotate(22.5) translate(0 -102)"/>
    <use href="#cluster-dark" transform="rotate(67.5) translate(0 -102)"/>
    <use href="#cluster-dark" transform="rotate(112.5) translate(0 -102)"/>
    <use href="#cluster-dark" transform="rotate(157.5) translate(0 -102)"/>
    <use href="#cluster-dark" transform="rotate(202.5) translate(0 -102)"/>
    <use href="#cluster-dark" transform="rotate(247.5) translate(0 -102)"/>
    <use href="#cluster-dark" transform="rotate(292.5) translate(0 -102)"/>
    <use href="#cluster-dark" transform="rotate(337.5) translate(0 -102)"/>
  </g>

  <circle cx="128" cy="128" r="17" fill="#B53A2D"/>
</svg>
